<?xml version="1.0" encoding="UTF-8"?> <svg xmlns="http://www.w3.org/2000/svg" width="55" height="55" viewBox="0 0 55 55" fill="none"> <g clip-path="url(#clip0)"> <path d="M42.24 51.7001C42.24 44.4401 37.18 38.5001 30.36 36.9601V33.2201C32.89 32.0101 34.65 29.4801 34.65 26.4001C34.65 25.7401 34.65 23.3201 34.65 22.6601C34.65 18.4801 31.24 15.1801 27.17 15.1801C22.99 15.1801 19.69 18.5901 19.69 22.6601C19.69 23.3201 19.69 25.7401 19.69 26.4001C19.69 29.3701 21.45 31.9001 23.87 33.1101V36.9601C17.16 38.5001 12.21 44.5501 12.21 51.7001H42.24Z" stroke="#58586A" stroke-width="2" stroke-miterlimit="10"></path> <path d="M34.76 20.46C35.86 19.8 36.96 19.25 38.28 19.03V16.17C36.41 15.29 35.09 13.31 35.09 11.11C35.09 10.67 35.09 8.80003 35.09 8.25003C35.09 5.17003 37.62 2.53003 40.81 2.53003C43.89 2.53003 46.53 5.06003 46.53 8.25003C46.53 8.69003 46.53 10.56 46.53 11.11C46.53 13.42 45.21 15.29 43.23 16.17V19.03C48.4 20.13 52.14 24.64 52.14 30.14H33.77" stroke="#58586A" stroke-width="2" stroke-miterlimit="10"></path> <path d="M20.02 20.46C18.92 19.8 17.71 19.25 16.5 19.03V16.17C18.37 15.29 19.8 13.31 19.8 11.11C19.8 10.67 19.8 8.80003 19.8 8.25003C19.8 5.17003 17.27 2.53003 14.08 2.53003C11 2.53003 8.36 5.06003 8.36 8.25003C8.36 8.69003 8.36 10.56 8.36 11.11C8.36 13.31 9.68 15.18 11.55 16.17V19.03C6.49 20.13 2.75 24.64 2.75 30.14H20.02" stroke="#58586A" stroke-width="2" stroke-miterlimit="10"></path> </g> <defs> <clipPath id="clip0"> <path d="M0 0H55V55H0V0Z" fill="white"></path> </clipPath> </defs> </svg> 