<?xml version="1.0" encoding="UTF-8"?> <svg xmlns="http://www.w3.org/2000/svg" width="55" height="55" viewBox="0 0 55 55" fill="none"> <g clip-path="url(#clip0)"> <path d="M27.39 48.2901C38.872 48.2901 48.18 38.9821 48.18 27.5001C48.18 16.0181 38.872 6.71008 27.39 6.71008C15.908 6.71008 6.59998 16.0181 6.59998 27.5001C6.59998 38.9821 15.908 48.2901 27.39 48.2901Z" stroke="#58586A" stroke-width="2" stroke-miterlimit="10"></path> <path d="M27.06 11.77V31.46" stroke="#58586A" stroke-width="2" stroke-miterlimit="10"></path> <path d="M27.06 31.4601L33.77 24.7501" stroke="#58586A" stroke-width="2" stroke-miterlimit="10"></path> <path d="M27.39 53.46C41.7273 53.46 53.35 41.8374 53.35 27.5C53.35 13.1627 41.7273 1.54004 27.39 1.54004C13.0527 1.54004 1.42999 13.1627 1.42999 27.5C1.42999 41.8374 13.0527 53.46 27.39 53.46Z" stroke="#58586A" stroke-width="2" stroke-miterlimit="10"></path> </g> <defs> <clipPath id="clip0"> <path d="M0 0H55V55H0V0Z" fill="white"></path> </clipPath> </defs> </svg> 