<?xml version="1.0" encoding="UTF-8"?> <svg xmlns="http://www.w3.org/2000/svg" width="55" height="55" viewBox="0 0 55 55" fill="none"> <g clip-path="url(#clip0)"> <path d="M26.18 5.71994L19.69 18.9199L5.16998 21.0099C3.84998 21.2299 3.40998 22.7699 4.28998 23.6499L14.74 33.8799L12.32 48.3999C12.1 49.6099 13.42 50.5999 14.52 50.0499L27.83 43.3399L40.48 50.0499C41.58 50.5999 42.9 49.7199 42.68 48.3999L40.15 33.9899L50.6 23.7599C51.48 22.8799 51.04 21.3399 49.72 21.1199L35.2 19.0299L28.71 5.82994C28.38 4.61994 26.73 4.61994 26.18 5.71994Z" stroke="#58586A" stroke-width="2" stroke-miterlimit="10"></path> </g> <defs> <clipPath id="clip0"> <path d="M0 0H55V55H0V0Z" fill="white"></path> </clipPath> </defs> </svg> 