<?xml version="1.0" encoding="UTF-8"?> <svg xmlns="http://www.w3.org/2000/svg" width="55" height="55" viewBox="0 0 55 55" fill="none"> <path fill-rule="evenodd" clip-rule="evenodd" d="M53.9 24.2H46.2V1.1C46.2 0.4928 45.7083 0 45.1 0H1.1C0.4928 0 0 0.4928 0 1.1V36.3C0 36.9083 0.4928 37.4 1.1 37.4H8.8V45.1C8.8 45.5059 9.0233 45.8788 9.3808 46.0702C9.5436 46.1571 9.7218 46.2 9.9 46.2C10.1134 46.2 10.3257 46.1373 10.5105 46.0152L23.4333 37.4H24.2V45.1C24.2 45.7083 24.6928 46.2 25.3 46.2H31.5667L44.4895 54.8152C44.6732 54.9373 44.8866 55 45.1 55C45.2782 55 45.4564 54.9571 45.6192 54.8702C45.9767 54.6788 46.2 54.3059 46.2 53.9V46.2H53.9C54.5083 46.2 55 45.7083 55 45.1V25.3C55 24.6928 54.5083 24.2 53.9 24.2ZM23.1 35.2C22.8833 35.2 22.6699 35.2649 22.4895 35.3848L11 43.0452V36.3C11 35.6917 10.5072 35.2 9.9 35.2H2.2V2.2H44V35.2H23.1ZM52.8 44H45.1C44.4917 44 44 44.4917 44 45.1V51.8452L32.5105 44.1848C32.3301 44.0649 32.1167 44 31.9 44H26.4V37.4H45.1C45.7083 37.4 46.2 36.9083 46.2 36.3V26.4H52.8V44Z" fill="#58586A"></path> </svg> 