<?xml version="1.0" encoding="UTF-8"?> <svg xmlns="http://www.w3.org/2000/svg" width="55" height="55" viewBox="0 0 55 55" fill="none"> <g clip-path="url(#clip0)"> <path d="M27.8301 47.8499C30.0171 47.8499 31.7901 46.077 31.7901 43.8899C31.7901 41.7029 30.0171 39.9299 27.8301 39.9299C25.643 39.9299 23.8701 41.7029 23.8701 43.8899C23.8701 46.077 25.643 47.8499 27.8301 47.8499Z" stroke="#58586A" stroke-width="2" stroke-miterlimit="10" stroke-linecap="round" stroke-linejoin="round"></path> <path d="M15.62 34.0999C18.37 30.3599 22.88 27.9399 27.83 27.9399C32.67 27.9399 36.96 30.1399 39.71 33.6599" stroke="#58586A" stroke-width="2" stroke-miterlimit="10" stroke-linecap="round" stroke-linejoin="round"></path> <path d="M8.14001 26.95C12.87 21.23 19.91 17.6 27.83 17.6C35.53 17.6 42.46 21.01 47.19 26.4" stroke="#58586A" stroke-width="2" stroke-miterlimit="10" stroke-linecap="round" stroke-linejoin="round"></path> <path d="M1.65002 20.35C8.03002 13.09 17.38 8.46997 27.83 8.46997C38.06 8.46997 47.3 12.98 53.68 20.02" stroke="#58586A" stroke-width="2" stroke-miterlimit="10" stroke-linecap="round" stroke-linejoin="round"></path> </g> <defs> <clipPath id="clip0"> <path d="M0 0H55V55H0V0Z" fill="white"></path> </clipPath> </defs> </svg> 