<?xml version="1.0" encoding="UTF-8"?> <svg xmlns="http://www.w3.org/2000/svg" width="55" height="55" viewBox="0 0 55 55" fill="none"> <g clip-path="url(#clip0)"> <path d="M49.39 22.33V54.01H5.5V22.33" stroke="#58586A" stroke-width="2" stroke-miterlimit="10"></path> <path d="M53.24 10.12H1.65002V22.33H53.24V10.12Z" stroke="#58586A" stroke-width="2" stroke-miterlimit="10"></path> <path d="M27.39 10.12V54.01" stroke="#58586A" stroke-width="2" stroke-miterlimit="10"></path> <path d="M16.83 10.1199C14.3 7.69994 13.42 4.50994 14.85 2.74994C16.39 0.65994 20.35 1.09994 23.65 3.62994C25.96 5.38994 27.39 7.80994 27.39 9.78994" stroke="#58586A" stroke-width="2" stroke-miterlimit="10"></path> <path d="M38.06 10.1199C40.59 7.69994 41.47 4.50994 40.15 2.74994C38.61 0.65994 34.65 1.09994 31.35 3.62994C28.93 5.49994 27.5 8.13994 27.61 10.1199" stroke="#58586A" stroke-width="2" stroke-miterlimit="10"></path> </g> <defs> <clipPath id="clip0"> <path d="M0 0H55V55H0V0Z" fill="white"></path> </clipPath> </defs> </svg> 