<?xml version="1.0" encoding="UTF-8" standalone="no"?> <svg xmlns="http://www.w3.org/2000/svg" xmlns:xlink="http://www.w3.org/1999/xlink" preserveAspectRatio="xMidYMid meet" viewBox="0 0 114 33" width="114" height="33"> <defs> <path d="M97.8 0L86.43 13.12L86.43 0L72.89 0L72.89 33.12L86.43 33.12L86.43 18.55L97.8 33.12L113.49 33.12L99.36 15.84L113.49 0L97.8 0Z" id="altcK1fKo"></path> <path d="M46.24 0L36.44 0L36.44 13.54L46.24 13.54L46.24 33.12L59.78 33.12L59.78 13.54L69.56 13.54L69.56 0L59.78 0L46.24 0Z" id="h4936yWT1"></path> <path d="M9.8 0L0 0L0 13.54L9.8 13.54L9.8 33.12L23.33 33.12L23.33 13.54L33.13 13.54L33.13 0L23.33 0L9.8 0Z" id="cchs9eiFf"></path> </defs> <g> <g> <g> <use xlink:href="#altcK1fKo" opacity="1" fill="#f71818" fill-opacity="1"></use> <g> <use xlink:href="#altcK1fKo" opacity="1" fill-opacity="0" stroke="#000000" stroke-width="1" stroke-opacity="0"></use> </g> </g> <g> <use xlink:href="#h4936yWT1" opacity="1" fill="#f71818" fill-opacity="1"></use> <g> <use xlink:href="#h4936yWT1" opacity="1" fill-opacity="0" stroke="#000000" stroke-width="1" stroke-opacity="0"></use> </g> </g> <g> <use xlink:href="#cchs9eiFf" opacity="1" fill="#f71818" fill-opacity="1"></use> <g> <use xlink:href="#cchs9eiFf" opacity="1" fill-opacity="0" stroke="#000000" stroke-width="1" stroke-opacity="0"></use> </g> </g> </g> </g> </svg> 